<?xml version="1.0" encoding="utf-8"?>
<!-- Generator: Adobe Illustrator 22.1.0, SVG Export Plug-In . SVG Version: 6.00 Build 0)  -->
<svg version="1.1" id="Layer_1" xmlns="http://www.w3.org/2000/svg" xmlns:xlink="http://www.w3.org/1999/xlink" x="0px" y="0px"
	 viewBox="0 0 466.1 120.6" style="enable-background:new 0 0 466.1 120.6;" xml:space="preserve">
<style type="text/css">
	.st0{fill:#FFFFFF;}
</style>
<g id="XMLID_79_">
	<path id="XMLID_116_" class="st0" d="M16,12.4c0,2.4-1.2,3.6-3.6,3.6H3.6C1.2,16,0,14.8,0,12.4V3.6C0,1.2,1.2,0,3.6,0h8.7
		C14.8,0,16,1.2,16,3.6V12.4z M16,92.2c0,2.4-1.2,3.6-3.6,3.6H3.6c-2.4,0-3.6-1.2-3.6-3.6v-67c0-2.4,1.2-3.6,3.6-3.6h8.7
		c2.4,0,3.6,1.2,3.6,3.6V92.2z"/>
	<path id="XMLID_101_" class="st0" d="M29.1,44.2c0-15.1,7.6-22.6,22.9-22.6h20.7c15.2,0,22.9,7.5,22.9,22.6v29.7
		c0,15.1-7.6,22.6-22.9,22.6H52c-15.2,0-22.9-7.5-22.9-22.6V44.2z M44.8,73.2c0,2.8,0.8,5,2.5,6.7c1.7,1.6,3.9,2.5,6.8,2.5h16.4
		c2.9,0,5.1-0.8,6.8-2.5c1.7-1.6,2.5-3.9,2.5-6.7V45c0-2.8-0.8-5-2.5-6.7c-1.7-1.6-3.9-2.5-6.8-2.5H54.1c-2.9,0-5.1,0.8-6.8,2.5
		c-1.7,1.6-2.5,3.9-2.5,6.7V73.2z"/>
	<path id="XMLID_99_" class="st0" d="M115.3,21.6V7.8c0-2.4,1.2-3.6,3.6-3.6h8.7c2.4,0,3.6,1.2,3.6,3.6v13.8h16.1
		c2.4,0,3.6,1.2,3.6,3.6v7.3c0,2.4-1.2,3.6-3.6,3.6h-16.1v36.4c0,5.3,2.7,8,8,8h8c2.4,0,3.6,1.2,3.6,3.6v8c0,2.4-1.2,3.6-3.6,3.6
		h-10.2c-14.6,0-21.8-7.3-21.8-21.8V36.2h-8.7c-2.4,0-3.6-1.2-3.6-3.6v-7.3c0-2.4,1.2-3.6,3.6-3.6H115.3z"/>
	<path id="XMLID_97_" class="st0" d="M202.6,21.6c2.4,0,3.6,1.2,3.6,3.6V33c0,2.4-1.2,3.6-3.6,3.6h-10c-3.6,0-6.5,1.1-8.8,3.4
		c-2.2,2.2-3.4,5.2-3.4,8.8v43.5c0,2.4-1.2,3.6-3.6,3.6h-8.6c-2.4,0-3.6-1.2-3.6-3.6v-67c0-2.4,1.2-3.6,3.6-3.6h8.6
		c2.4,0,3.6,1.2,3.6,3.6v4.9h0.7c0.8-1.6,1.8-3,3.1-4.3c1.1-1,2.6-2,4.4-2.9c1.8-0.9,4-1.4,6.8-1.4H202.6z"/>
	<path id="XMLID_94_" class="st0" d="M212.1,44.3c0-15.1,7.6-22.6,22.8-22.6h20.7c15.2,0,22.8,7.5,22.8,22.6V74
		c0,15.1-7.6,22.6-22.8,22.6h-20.7c-15.2,0-22.8-7.5-22.8-22.6V44.3z M227.8,73.2c0,2.8,0.8,5,2.5,6.7c1.7,1.6,3.9,2.5,6.8,2.5h16.4
		c2.9,0,5.1-0.8,6.8-2.5c1.7-1.6,2.5-3.9,2.5-6.7V45.1c0-2.8-0.8-5-2.5-6.7c-1.7-1.6-3.9-2.5-6.8-2.5H237c-2.9,0-5.1,0.8-6.8,2.5
		c-1.7,1.6-2.5,3.9-2.5,6.7V73.2z"/>
	<path id="XMLID_88_" class="st0" d="M303.3,96.3v20.6c0,2.4-1.2,3.7-3.6,3.7h-8.6c-2.4,0-3.6-1.2-3.6-3.6V25.3
		c0-2.4,1.2-3.6,3.6-3.6h8.6c2.4,0,3.6,1.1,3.6,3.4v5.6h0.7c0.8-1.7,1.8-3.2,3.2-4.5c1.1-1.1,2.6-2.1,4.4-3.1c1.8-0.9,4-1.4,6.8-1.4
		h11.5c15.3,0,22.9,7.6,22.9,22.9v28.7c0,15.3-7.6,22.9-22.9,22.9H303.3z M303.3,82h24.4c2.9,0,5.1-0.8,6.8-2.5
		c1.7-1.7,2.5-3.9,2.5-6.8V45.4c0-2.9-0.8-5.1-2.5-6.8c-1.7-1.7-3.9-2.5-6.8-2.5h-12.2c-3.6,0-6.6,1.1-8.8,3.4
		c-2.2,2.2-3.4,5.2-3.4,8.8V82z"/>
	<path id="XMLID_85_" class="st0" d="M412.3,25.4c0.8-2.4,2.2-3.7,4.4-3.7h11.7c2.4,0,3.2,1.2,2.2,3.7L402.1,95
		c-3.3,8.5-7.3,14.9-11.9,19.2c-4.6,4.3-10.4,6.4-17.4,6.4h-3.7c-2.4,0-3.7-1.2-3.7-3.7v-8.1c0-2.4,1.2-3.7,3.7-3.7h3.7
		c5.8,0,10.2-4.1,13.2-12.4l-27.8-67.4c-1-2.4-0.2-3.7,2.2-3.7H372c2.1,0,3.6,1.2,4.4,3.7l17.6,44h0.7L412.3,25.4z"/>
	<g id="XMLID_80_">
		<path id="XMLID_83_" class="st0" d="M447.5,33.2c0,0.2-0.1,0.3-0.3,0.3h-1.1c-0.2,0-0.3-0.1-0.3-0.3V23h-3.7
			c-0.2,0-0.3-0.1-0.3-0.3v-1c0-0.2,0.1-0.3,0.3-0.3h9.1c0.2,0,0.3,0.1,0.3,0.3v1c0,0.2-0.1,0.3-0.3,0.3h-3.7V33.2z"/>
		<path id="XMLID_81_" class="st0" d="M459.3,33.4c-0.2,0-0.3,0-0.3-0.1c-0.1,0-0.1-0.1-0.2-0.2l-4.1-8.6h-0.1v8.6
			c0,0.2-0.1,0.3-0.3,0.3h-1.1c-0.2,0-0.3-0.1-0.3-0.3V21.7c0-0.2,0.1-0.3,0.3-0.3h1.3c0.2,0,0.3,0,0.3,0.1c0.1,0,0.1,0.1,0.2,0.2
			l4.5,9.5h0.1l4.5-9.5c0-0.1,0.1-0.2,0.2-0.2c0.1,0,0.2-0.1,0.3-0.1h1.3c0.2,0,0.3,0.1,0.3,0.3v11.5c0,0.2-0.1,0.3-0.3,0.3h-1.1
			c-0.2,0-0.3-0.1-0.3-0.3v-8.6h-0.1l-4.1,8.6c0,0.1-0.1,0.2-0.2,0.2c-0.1,0-0.2,0.1-0.3,0.1H459.3z"/>
	</g>
</g>
</svg>
